<svg width="19" height="16" viewBox="0 0 19 16" fill="none" xmlns="http://www.w3.org/2000/svg">
<path d="M3.85714 3.28571H18.1429L16.3303 9.62857C16.1937 10.106 15.9054 10.526 15.5088 10.825C15.1123 11.124 14.6292 11.2857 14.1326 11.2857H6.47543C5.91253 11.286 5.36931 11.0786 4.94985 10.7033C4.53039 10.3279 4.2642 9.81091 4.20229 9.25143L3.28571 1H1" stroke="black" stroke-linecap="round" stroke-linejoin="round"/>
<path d="M6.78571 14.4285C6.78571 14.7835 6.4979 15.0714 6.14286 15.0714C5.78782 15.0714 5.5 14.7835 5.5 14.4285C5.5 14.0735 5.78782 13.7856 6.14286 13.7856C6.4979 13.7856 6.78571 14.0735 6.78571 14.4285Z" fill="white" stroke="black"/>
<path d="M15.9283 14.4285C15.9283 14.7835 15.6405 15.0714 15.2854 15.0714C14.9304 15.0714 14.6426 14.7835 14.6426 14.4285C14.6426 14.0735 14.9304 13.7856 15.2854 13.7856C15.6405 13.7856 15.9283 14.0735 15.9283 14.4285Z" fill="white" stroke="black"/>
</svg>
