<svg width="20" height="20" viewBox="0 0 20 20" fill="none" xmlns="http://www.w3.org/2000/svg">
<path d="M7 8L10.258 10.444C10.4598 10.5954 10.7114 10.6649 10.9624 10.6385C11.2133 10.6122 11.445 10.492 11.611 10.302L18 3" stroke="white" stroke-width="2" stroke-linecap="round"/>
<path d="M19 10.0001C19 11.8806 18.411 13.7139 17.3157 15.2425C16.2203 16.7711 14.6736 17.9182 12.8929 18.5226C11.1122 19.1271 9.18685 19.1586 7.3873 18.6127C5.58776 18.0668 4.00442 16.9709 2.85967 15.4789C1.71492 13.987 1.06627 12.1739 1.00481 10.2944C0.943352 8.41485 1.47218 6.56329 2.51702 4.99974C3.56187 3.43619 5.07023 2.23921 6.83027 1.5769C8.5903 0.914591 10.5136 0.820234 12.33 1.30708" stroke="white" stroke-width="2" stroke-linecap="round"/>
</svg>
