<svg
  width="24"
  height="24"
  viewBox="0 0 24 24"
  fill="none"
  xmlns="http://www.w3.org/2000/svg"
>
<path
    d="M16.7 9.3502C17.777 9.3502 18.65 8.47715 18.65 7.4002C18.65 6.32324 17.777 5.4502 16.7 5.4502C15.623 5.4502 14.75 6.32324 14.75 7.4002C14.75 8.47715 15.623 9.3502 16.7 9.3502Z"
    stroke="black"
    stroke-opacity="1"
    stroke-width="1"
    stroke-linecap="round"
    stroke-linejoin="round"
  />
<path
    d="M10.2002 10.2002C9.8179 8.96105 9.86685 7.62894 10.339 6.42121C10.8112 5.21348 11.6788 4.20142 12.8002 3.55019C13.9282 2.90148 15.2455 2.66165 16.5297 2.87114C17.814 3.08063 18.9868 3.72663 19.8502 4.70019C20.7104 5.66437 21.2148 6.89386 21.2796 8.18437C21.3444 9.47488 20.9657 10.7487 20.2064 11.7942C19.4471 12.8397 18.3529 13.5939 17.1056 13.9316C15.8584 14.2692 14.5332 14.1699 13.3502 13.6502"
    stroke="black"
    stroke-opacity="1"
    stroke-width="1"
    stroke-linecap="round"
    stroke-linejoin="round"
  />
<path
    d="M10.2 10.2002L2.75 18.5002V21.2002H5.8L6.15 19.1002L9.4 18.9002L9.65 16.1502L12.4 16.1002L13.3 13.7002"
    stroke="black"
    stroke-opacity="1"
    stroke-width="1"
  />
</svg>
