<svg
  width="12"
  height="14"
  viewBox="0 0 12 14"
  fill="none"
  xmlns="http://www.w3.org/2000/svg"
>
<path
    d="M5.29393 13.2125C4.11795 14.2348 2.30715 13.2285 2.55411 11.6901L2.86004 9.78422C2.96591 9.12468 2.78822 8.45111 2.37081 7.92962L1.45047 6.7798C0.378519 5.44056 1.18894 3.4445 2.89108 3.23158L3.14245 3.20014C3.85691 3.11077 4.45023 2.60596 4.65287 1.91503C5.16088 0.182919 7.61448 0.182919 8.12249 1.91503C8.32513 2.60596 8.91845 3.11077 9.63291 3.20014L9.88428 3.23158C11.5864 3.4445 12.3968 5.44057 11.3249 6.7798L10.4046 7.92962C9.98714 8.45112 9.80945 9.12468 9.91532 9.78422L10.2212 11.6901C10.4682 13.2285 8.65741 14.2348 7.48143 13.2125C6.85419 12.6672 5.92117 12.6672 5.29393 13.2125Z"
    fill="#FFC700"
  />
</svg>
